<svg xmlns="http://www.w3.org/2000/svg" xmlns:xlink="http://www.w3.org/1999/xlink" version="1.1" id="Layer_1" x="0px" y="0px" width="24px" height="24px" viewBox="-9.5 5.5 24 24" enable-background="new -9.5 5.5 24 24" xml:space="preserve">
<path d="M12.5,15.5v-8l-2.937,2.937C7.71,8.576,5.199,7.5,2.5,7.5c-5.514,0-10,4.486-10,10c0,5.514,4.486,10,10,10  c4.174,0,7.946-2.631,9.387-6.546c0.191-0.519-0.075-1.094-0.593-1.284c-0.517-0.189-1.093,0.074-1.284,0.593  C8.857,23.396,5.839,25.5,2.5,25.5c-4.411,0-8-3.589-8-8s3.589-8,8-8c2.159,0,4.167,0.861,5.651,2.349L4.5,15.5H12.5z"/>
</svg>