<svg xmlns="http://www.w3.org/2000/svg" xmlns:xlink="http://www.w3.org/1999/xlink" version="1.1" id="Layer_1" x="0px" y="0px" width="100px" height="100px" viewBox="0 0 100 100" enable-background="new 0 0 100 100" xml:space="preserve">
<g>
	<path d="M55.548,18.601L47.689,30.88c0.758-0.091,1.528-0.139,2.311-0.139c8.817,0,16.25,5.925,18.535,14.011l13.018,8.331   l13.133-8.405C92.052,22.334,73.052,5,50,5c-1.038,0-2.066,0.038-3.087,0.107L55.548,18.601z"/>
	<path d="M18.448,44.605l12.466,7.979c-0.113-0.846-0.173-1.707-0.173-2.584c0-8.792,5.893-16.208,13.943-18.515l8.245-12.885   L44.452,5.354V5.341C22.218,8.075,5,27.026,5,50c0,1.057,0.04,2.103,0.111,3.141L18.448,44.605z"/>
	<path d="M81.553,55.7l-12.425-7.951c0.086,0.738,0.132,1.489,0.132,2.251c0,8.708-5.78,16.064-13.712,18.447v0.012l-8.477,13.246   l8.303,12.975C77.693,92.023,95,73.034,95,50c0-0.956-0.033-1.905-0.092-2.847L81.553,55.7z"/>
	<path d="M44.452,81.705l8.07-12.61C51.697,69.203,50.855,69.26,50,69.26c-8.679,0-16.017-5.742-18.423-13.635l-13.129-8.401   L5.348,55.607C8.107,77.813,27.046,95,50,95c0.975,0,1.941-0.034,2.9-0.095L44.452,81.705z"/>
</g>
</svg>