<svg xmlns="http://www.w3.org/2000/svg" xmlns:xlink="http://www.w3.org/1999/xlink" version="1.1" x="0px" y="0px" width="90px" height="90px" viewBox="0 0 90 90" enable-background="new 0 0 90 90" xml:space="preserve">
<g id="Layer_1" display="none">
	<path display="inline" fill="none" stroke="#000000" stroke-width="3" stroke-linecap="round" stroke-miterlimit="10" d="   M19.831,61.571c1.178,4.965,3.75,9.546,7.361,13.154c5.291,5.292,12.437,7.918,19.578,7.911c7.139,0.007,14.284-2.619,19.575-7.911   c3.609-3.608,6.178-8.189,7.364-13.154c1.156-4.834,0.749-9.892-0.495-14.714c-1.938-7.52-12.438-18.107-18.483-27.192   c-5.817-8.735-6.498-12.519-7.354-14.141c0,0-0.062-0.7-0.607-0.638c-0.545-0.062-0.606,0.638-0.606,0.638   c-0.726,1.119-2.648,7.166-7.326,14.141c-6.795,10.129-15.236,17.776-18.515,27.192C18.687,51.56,18.679,56.737,19.831,61.571z"/>
	<path display="inline" fill="none" stroke="#000000" stroke-width="3" stroke-linecap="round" stroke-miterlimit="10" d="   M45.126,75.396c5.351,0.005,10.708-1.964,14.675-5.93c2.705-2.705,4.63-6.14,5.521-9.862"/>
</g>
<g id="Layer_2" display="none">
	<g display="inline">
		<path fill="none" d="M51.69,71.587l-2.07,4.277l-0.988,2.043c-0.825,1.704-2.536,2.699-4.313,2.699    c-0.699,0-1.407-0.154-2.077-0.478l-6.99-3.383c-0.746-0.361-1.058-1.259-0.697-2.004c0.361-0.745,1.26-1.057,2.003-0.697    l6.99,3.383c0.886,0.43,1.954,0.058,2.383-0.827l0.989-2.043l2.069-4.277c0.362-0.746,1.259-1.057,2.004-0.697    C51.739,69.944,52.051,70.841,51.69,71.587z"/>
		<path fill="none" d="M30.105,45.312c0.556-1.149,1.526-2.014,2.733-2.434c0.744-0.259,1.521-0.307,2.279-0.193V31.835v-8.144    c0-0.983-0.8-1.783-1.784-1.783H6.15c-0.983,0-1.783,0.8-1.783,1.783v8.142v10.856v8.144c0,0.983,0.8,1.783,1.784,1.783H26.57    L30.105,45.312z M19.79,27.782h-7.764c-0.983,0-1.784,0.801-1.784,1.785v7.02c0,0.829-0.671,1.5-1.5,1.5s-1.5-0.671-1.5-1.5v-7.02    c0-2.638,2.146-4.785,4.784-4.785h7.764c0.829,0,1.5,0.671,1.5,1.5S20.618,27.782,19.79,27.782z"/>
		<path fill="none" d="M80.737,13.92c-0.001-0.002,0-0.005-0.001-0.007l-1.709-7.957c-0.207-0.96-1.158-1.577-2.117-1.368    l-26.577,5.706c-0.961,0.207-1.576,1.158-1.369,2.118l3.99,18.575c0.002,0.008,0.001,0.017,0.003,0.025l1.704,7.938    c0.207,0.961,1.154,1.573,2.118,1.369l26.577-5.707c0.467-0.1,0.866-0.376,1.125-0.776c0.258-0.399,0.345-0.876,0.244-1.343    L80.737,13.92z M80.024,30.954c-0.693,1.073-1.764,1.812-3.014,2.081l-7.593,1.63c-0.105,0.022-0.212,0.034-0.316,0.034    c-0.691,0-1.313-0.482-1.465-1.186c-0.174-0.81,0.342-1.607,1.152-1.782l7.592-1.63c0.466-0.1,0.865-0.375,1.124-0.775    c0.258-0.399,0.345-0.876,0.244-1.342l-1.473-6.866c-0.174-0.81,0.342-1.607,1.152-1.781c0.805-0.17,1.607,0.342,1.781,1.152    l1.473,6.865C80.951,28.602,80.718,29.881,80.024,30.954z"/>
		<path d="M19.79,24.782h-7.764c-2.638,0-4.784,2.146-4.784,4.785v7.02c0,0.829,0.671,1.5,1.5,1.5s1.5-0.671,1.5-1.5v-7.02    c0-0.984,0.8-1.785,1.784-1.785h7.764c0.829,0,1.5-0.671,1.5-1.5S20.618,24.782,19.79,24.782z"/>
		<path d="M87.659,31.862l-1.706-7.946c-0.001-0.005-0.001-0.009-0.002-0.014L81.96,5.324c-0.557-2.578-3.107-4.222-5.681-3.669    L49.702,7.36c-2.578,0.556-4.226,3.105-3.672,5.682l1.708,7.949c0,0.004,0,0.008,0.001,0.012l3.988,18.577    c0.483,2.242,2.472,3.779,4.676,3.779c0.332,0,0.669-0.035,1.006-0.107l26.577-5.707c1.251-0.269,2.321-1.008,3.015-2.081    C87.694,34.391,87.928,33.111,87.659,31.862z M84.481,33.835c-0.259,0.4-0.658,0.676-1.125,0.776l-26.577,5.707    c-0.964,0.204-1.911-0.408-2.118-1.369l-1.704-7.938c-0.002-0.008-0.001-0.017-0.003-0.025l-3.99-18.575    c-0.207-0.96,0.408-1.911,1.369-2.118L76.91,4.588c0.959-0.209,1.91,0.408,2.117,1.368l1.709,7.957    c0.001,0.002,0,0.005,0.001,0.007l3.988,18.573C84.826,32.959,84.739,33.436,84.481,33.835z"/>
		<path d="M79.21,20.489c-0.174-0.81-0.977-1.322-1.781-1.152c-0.811,0.174-1.326,0.971-1.152,1.781l1.473,6.866    c0.101,0.466,0.014,0.942-0.244,1.342c-0.259,0.4-0.658,0.675-1.124,0.775l-7.592,1.63c-0.811,0.174-1.326,0.972-1.152,1.782    c0.151,0.704,0.773,1.186,1.465,1.186c0.104,0,0.211-0.011,0.316-0.034l7.593-1.63c1.25-0.269,2.32-1.007,3.014-2.081    c0.693-1.073,0.927-2.352,0.658-3.6L79.21,20.489z"/>
		<path d="M60.961,54.934L38.117,43.875v-1.184V31.835v-8.144c0-2.638-2.146-4.783-4.784-4.783H6.15    c-2.638,0-4.783,2.146-4.783,4.783v8.142v10.856v8.144c0,2.638,2.146,4.783,4.784,4.783h18.966L18.28,69.742    c-1.149,2.374-0.153,5.241,2.222,6.392l24.467,11.84c0.669,0.325,1.378,0.479,2.077,0.479c1.777,0,3.487-0.994,4.314-2.699    l3.545-7.324c0.001-0.002,0.002-0.003,0.003-0.005l8.276-17.103C64.332,58.944,63.334,56.079,60.961,54.934z M6.151,52.616    c-0.984,0-1.784-0.8-1.784-1.783v-8.144V31.833v-8.142c0-0.983,0.8-1.783,1.783-1.783h27.183c0.984,0,1.784,0.8,1.784,1.783v8.144    v10.851c-0.758-0.114-1.535-0.066-2.279,0.193c-1.207,0.419-2.177,1.284-2.733,2.434l-3.535,7.304H6.151z M60.483,60.016    l-3.545,7.324l-0.003,0.007l-4.729,9.771v-0.001l-3.547,7.329c-0.429,0.886-1.495,1.259-2.384,0.828L21.81,73.434    c-0.886-0.43-1.258-1.499-0.829-2.385l3.544-7.322c0.001-0.003,0.003-0.005,0.005-0.008l3.922-8.103l0.807-1.668l0.645-1.332    l2.903-5.998c0.207-0.428,0.568-0.75,1.018-0.907c0.427-0.148,0.881-0.125,1.293,0.053c0.023,0.01,0.048,0.015,0.071,0.026    l2.929,1.418l21.538,10.426C60.54,58.062,60.911,59.13,60.483,60.016z"/>
		<path d="M50.993,69.583c-0.745-0.359-1.642-0.049-2.004,0.697l-2.069,4.277l-0.989,2.043c-0.429,0.885-1.497,1.257-2.383,0.827    l-6.99-3.383c-0.744-0.359-1.642-0.048-2.003,0.697c-0.361,0.745-0.049,1.643,0.697,2.004l6.99,3.383    c0.669,0.323,1.378,0.478,2.077,0.478c1.777,0,3.488-0.995,4.313-2.699l0.988-2.043l2.07-4.277    C52.051,70.841,51.739,69.944,50.993,69.583z"/>
	</g>
</g>
<g id="Layer_3" display="none">
	<path display="inline" d="M57.241,3.054L37.265,3.27h-6.447c-1.95,0-3.536,1.586-3.536,3.537v2.026v0.149v1.239   c0,2,1.617,2.778,2.687,3.292l3.051,1.091c-0.027,1.315-0.703,3.761-1.74,6.163c-0.114,0.266-0.479,0.553-0.865,0.858   c-0.731,0.578-1.734,1.37-2.02,2.814c-0.249,1.262,0.223,2.397,1.262,3.035c0.635,0.39,1.454,0.56,2.306,0.56   c1.405,0,2.899-0.463,3.796-1.166c2.719-2.129,4.122-5.54,5.135-8.827c0.059-0.188,0.112-0.374,0.168-0.561l3.361,1.202   l0.041,2.074l0.01,0.432c-1.539,0.561-2.646,2.024-2.646,3.753v5.873c0,0.047,0.01,0.092,0.014,0.139   c-0.004,0.046-0.014,0.091-0.014,0.138c0,0.829,0.671,1.5,1.5,1.5h0.457v3.439c0,5.081-5.68,10.128-8.724,11.409   c-4.257,1.793-5.072,7.194-5.104,7.423l-0.757,28.564c0,2.21,1.798,4.008,4.009,4.008h6.203h6.859h14.878   c2.211,0,4.009-1.798,4.009-4.008v-32.06l-0.004-0.104c-0.011-0.152-0.276-3.764-1.6-6.81c-0.479-1.099-1.18-2.312-1.857-3.484   c-0.98-1.697-2.201-3.808-2.201-4.831c0-1.521-0.01-2.845-0.016-3.546h0.262c0.828,0,1.5-0.671,1.5-1.5   c0-0.074-0.012-0.145-0.021-0.216c0.01-0.071,0.021-0.142,0.021-0.216v-5.717c0-2.02-1.508-3.679-3.454-3.951v-3.758   c0.693-0.297,2.836-0.236,4.154-0.2c2.863,0.079,5.572,0.156,6.92-1.32c0.387-0.424,0.819-1.157,0.717-2.255V12.55L57.241,3.054z    M62.024,14.034c-2.768-0.078-5.155-0.144-6.443,1.106c-0.52,0.505-0.794,1.165-0.795,1.908v3.886h-0.05h-0.535h-1.132h-5.603   l-0.064-3.197l-0.023-1.188l-10.236-3.637l-5.621-1.998l-0.125-0.044L31.27,10.81c-0.357-0.172-0.896-0.431-0.988-0.589V9.973   V9.687V8.981V8.833V6.806c0-0.296,0.24-0.537,0.536-0.537h6.464l18.954-0.205l10.105,7.78   C65.456,14.13,63.272,14.069,62.024,14.034z M33.908,24.507c-0.621,0.486-2.036,0.641-2.561,0.468   c0.08-0.301,0.354-0.542,0.926-0.995c0.6-0.473,1.346-1.062,1.76-2.023c0.441-1.021,1.589-3.856,1.903-6.309l2.296,0.821   C37.334,19.519,36.151,22.75,33.908,24.507z M56.494,36.138c0,1.828,1.265,4.016,2.604,6.333c0.636,1.1,1.293,2.237,1.703,3.179   c1.041,2.395,1.32,5.369,1.354,5.777v32c0,0.556-0.452,1.008-1.009,1.008H46.27H39.41h-6.203c-0.557,0-1.009-0.452-1.01-0.969   l0.738-28.248c0.098-0.529,0.818-3.973,3.287-5.013c3.568-1.501,10.561-7.382,10.561-14.174v-3.439h9.695   C56.484,33.278,56.494,34.608,56.494,36.138z M58.24,24.942v4.649H44.826v-4.649c0-0.556,0.452-1.007,1.008-1.007h7.235h1.667   h2.496C57.788,23.935,58.24,24.386,58.24,24.942z"/>
</g>
<g id="Layer_4">
	<g>
		<g>
			<path d="M45.304,86.787L45.304,86.787c-1.035,0-2.057-0.272-2.955-0.788l-31.208-17.94c-1.832-1.055-2.971-3.021-2.973-5.131     L8.101,26.932c-0.004-2.112,1.128-4.082,2.956-5.14L42.197,3.735c1.795-1.042,4.123-1.047,5.928-0.011l31.21,17.941     c1.83,1.052,2.969,3.018,2.972,5.129l0.068,35.996c0.003,2.112-1.13,4.081-2.956,5.14L48.278,85.987     C47.376,86.511,46.348,86.787,45.304,86.787z M45.17,5.936c-0.515,0-1.022,0.136-1.467,0.395L12.561,24.388     c-0.903,0.522-1.462,1.495-1.459,2.537l0.067,35.998c0.001,1.043,0.564,2.014,1.469,2.535l31.207,17.939     c0.891,0.512,2.042,0.509,2.929-0.005l31.142-18.059c0.902-0.522,1.462-1.496,1.461-2.539l-0.068-35.996     c-0.001-1.043-0.563-2.014-1.467-2.533L46.63,6.325C46.187,6.07,45.682,5.936,45.17,5.936z M45.256,64.489     c-6.983,0-13.495-3.749-16.995-9.784c-2.63-4.535-3.336-9.823-1.989-14.888c1.347-5.066,4.587-9.304,9.123-11.934     c2.991-1.734,6.389-2.65,9.828-2.65c6.983,0,13.494,3.749,16.994,9.783c5.427,9.363,2.227,21.396-7.133,26.824     C52.093,63.573,48.694,64.489,45.256,64.489z M45.223,28.232c-2.911,0-5.789,0.776-8.323,2.246     c-3.843,2.228-6.587,5.818-7.729,10.109c-1.141,4.291-0.543,8.771,1.685,12.611c2.966,5.114,8.484,8.29,14.4,8.29     c2.91,0,5.788-0.776,8.323-2.245c7.929-4.598,10.64-14.792,6.042-22.724C56.657,31.408,51.14,28.232,45.223,28.232z"/>
		</g>
	</g>
</g>
<g id="Layer_6" display="none">
	<g display="inline">
		<path fill="none" stroke="#000000" stroke-width="3" stroke-linecap="round" stroke-miterlimit="10" d="M19.864,37.249h28.958    c0,0,12.642,1.188,12.642-10.155c0-7.352-7.922-12.258-14.109-6.722c-2.136,1.911-3.226,5.204-1.719,7.79"/>
		<path fill="none" stroke="#000000" stroke-width="3" stroke-linecap="round" stroke-miterlimit="10" d="M19.864,55.416h38.467    c0,0,12.643-1.188,12.643,10.157c0,7.349-7.922,12.255-14.111,6.719c-2.136-1.911-3.225-5.204-1.719-7.79"/>
		<path fill="none" stroke="#000000" stroke-width="3" stroke-linecap="round" stroke-miterlimit="10" d="M3.771,46.518h70.451    c0,0,12.642,1.189,12.642-10.157c0-7.349-7.921-12.255-14.109-6.719c-2.137,1.911-3.226,5.204-1.72,7.79"/>
	</g>
</g>
</svg>