<svg xmlns="http://www.w3.org/2000/svg" xmlns:xlink="http://www.w3.org/1999/xlink" version="1.1" id="Layer_1" x="0px" y="0px" width="88px" height="88px" viewBox="0 0 88 88" enable-background="new 0 0 88 88" xml:space="preserve">
<g>
	<path d="M44.643,85.287C21.876,85.287,3.355,66.766,3.355,44c0-22.766,18.521-41.288,41.288-41.288   C67.408,2.712,85.93,21.234,85.93,44C85.93,66.766,67.408,85.287,44.643,85.287z M44.643,10.913   c-18.245,0-33.087,14.843-33.087,33.087c0,18.244,14.843,33.088,33.087,33.088C62.887,77.088,77.73,62.244,77.73,44   C77.73,25.755,62.887,10.913,44.643,10.913z"/>
</g>
<g>
	<path d="M48.25,61.174c0,1.992-1.615,3.607-3.607,3.607l0,0c-1.992,0-3.607-1.615-3.607-3.607V26.826   c0-1.992,1.615-3.607,3.607-3.607l0,0c1.992,0,3.607,1.615,3.607,3.607V61.174z"/>
</g>
<g>
	<path d="M27.468,47.607c-1.992,0-3.607-1.615-3.607-3.607l0,0c0-1.992,1.615-3.607,3.607-3.607h34.348   c1.992,0,3.607,1.615,3.607,3.607l0,0c0,1.992-1.615,3.607-3.607,3.607H27.468z"/>
</g>
</svg>