<svg xmlns="http://www.w3.org/2000/svg" xmlns:xlink="http://www.w3.org/1999/xlink" version="1.1" id="Layer_1" x="0px" y="0px" viewBox="0 0 100 100" enable-background="new 0 0 100 100" xml:space="preserve" height="100px" width="100px">
<path d="M87.89,23.5L54,3.94c-2.43-1.41-5.57-1.41-8,0L12.11,23.5c-2.47,1.43-4,4.08-4,6.93v39.14c0,2.85,1.53,5.5,4,6.93L46,96.06  c1.21,0.71,2.6,1.08,4,1.08s2.79-0.37,4-1.08L87.89,76.5c2.47-1.43,4-4.08,4-6.93V30.43C91.89,27.58,90.36,24.93,87.89,23.5z   M87.89,69.57c0,1.42-0.76,2.75-2,3.46L52,92.6c-1.21,0.7-2.79,0.7-4,0L14.11,73.03c-1.24-0.71-2-2.04-2-3.46V30.43  c0-1.42,0.76-2.75,2-3.46L48,7.4c0.61-0.35,1.3-0.54,2-0.54s1.39,0.19,2,0.54l33.89,19.57c1.24,0.71,2,2.04,2,3.46V69.57z"/>
<polygon points="52.83,50 65.56,62.73 62.73,65.56 50,52.83 37.27,65.56 34.44,62.73 47.17,50 34.44,37.27 37.27,34.44 50,47.17   62.73,34.44 65.56,37.27 "/>
</svg>