<svg xmlns="http://www.w3.org/2000/svg" xmlns:xlink="http://www.w3.org/1999/xlink" version="1.1" x="0px" y="0px" width="100px" height="100px" viewBox="0 0 100 100" enable-background="new 0 0 100 100" xml:space="preserve">
<g id="Captions">
</g>
<g id="Broccoli">
</g>
<g id="Mobile">
</g>
<g id="Exclamation">
</g>
<g id="News">
</g>
<g id="Video">
</g>
<g id="Rainbow">
</g>
<g id="Glassboard">
</g>
<g id="Lightbulb">
</g>
<g id="Network">
	<path d="M49.105,24.244l0.169,0.071c0.749,0.202,1.537,0.31,2.351,0.31c4.971,0,9-4.029,9-9s-4.029-9-9-9s-9.001,4.029-9.001,9   c0,2.4,0.938,4.581,2.47,6.194l0.004-0.002L23.314,53.036l-0.028-0.007c-0.846-0.263-1.759-0.404-2.69-0.404   c-4.971,0-9.029,4.029-9.029,9s3.971,9,8.941,9c3.189,0,5.942-1.659,7.506-4.161l37.611,13.558l0.021,0.002   c-0.014,0.199-0.021,0.399-0.021,0.602c0,4.971,4.029,9,9,9s9-4.029,9-9s-4.029-9-9-9c-3.025,0-5.701,1.492-7.333,3.781   l0.003,0.003L29.39,61.625c0-2.23-0.39-4.271-2.39-5.844v0.006l22.045-31.477"/>
</g>
<g id="Money">
</g>
<g id="Layer_12">
</g>
</svg>