<svg xmlns="http://www.w3.org/2000/svg" xmlns:xlink="http://www.w3.org/1999/xlink" version="1.1" id="Your_Icon" x="0px" y="0px" width="100px" height="100px" viewBox="0 0 100 100" enable-background="new 0 0 100 100" xml:space="preserve">
<path d="M97.706,38.83l-7.226,0.003C91.463,42.392,92,46.134,92,50c0,23.156-18.842,42-42,42C26.84,92,8,73.156,8,50  C8,26.842,26.84,8,50,8c13.362,0,25.279,6.278,32.977,16.035l-16.288-0.114l0.012,7.538l27.209-0.015l0.034-27.188l-7.46-0.036  l0.027,13.124C77.54,7.317,64.513,1,50,1C22.938,1,1,22.938,1,50s21.938,49,49,49s49-21.938,49-49  C99,46.155,98.544,42.419,97.706,38.83z"/>
<circle cx="50" cy="49.998" r="8.224"/>
</svg>