<svg xmlns="http://www.w3.org/2000/svg" xmlns:xlink="http://www.w3.org/1999/xlink" version="1.1" id="Your_Icon" x="0px" y="0px" width="100px" height="100px" viewBox="0 0 100 100" enable-background="new 0 0 100 100" xml:space="preserve">
<g>
	<path fill="none" d="M37.149,10.063c-14.936,0-27.086,12.151-27.086,27.086c0,14.936,12.151,27.086,27.086,27.086   c14.935,0,27.085-12.15,27.085-27.086C64.234,22.214,52.084,10.063,37.149,10.063z M55.699,40.801H40.801v14.898   c0,0.968-0.785,1.753-1.752,1.753h-3.8c-0.968,0-1.752-0.785-1.752-1.753V40.801H18.599c-0.968,0-1.752-0.784-1.752-1.752v-3.8   c0-0.968,0.785-1.752,1.752-1.752h14.897V18.599c0-0.968,0.785-1.752,1.752-1.752h3.8c0.968,0,1.752,0.785,1.752,1.752v14.898   h14.898c0.968,0,1.752,0.785,1.752,1.752v3.8C57.451,40.017,56.667,40.801,55.699,40.801z"/>
	<path fill="#000000" d="M99.337,89.071L68.052,57.786c4.063-6.058,6.246-13.179,6.246-20.637c0-9.923-3.864-19.252-10.881-26.269   C56.401,3.864,47.072,0,37.149,0c-9.923,0-19.252,3.864-26.269,10.881S0,27.227,0,37.149s3.864,19.252,10.881,26.269   s16.345,10.88,26.269,10.88c7.541,0,14.737-2.233,20.838-6.385l31.255,31.253c1.055,1.056,2.995,0.827,4.332-0.511l5.252-5.252   C100.164,92.066,100.393,90.126,99.337,89.071z M37.149,64.235c-14.936,0-27.086-12.15-27.086-27.086   c0-14.935,12.151-27.086,27.086-27.086c14.935,0,27.085,12.151,27.085,27.086C64.234,52.085,52.084,64.235,37.149,64.235z"/>
	<path fill="#000000" d="M55.699,33.497H40.801V18.599c0-0.968-0.785-1.752-1.752-1.752h-3.8c-0.968,0-1.752,0.785-1.752,1.752   v14.898H18.599c-0.968,0-1.752,0.785-1.752,1.752v3.8c0,0.968,0.785,1.752,1.752,1.752h14.897v14.898   c0,0.968,0.785,1.753,1.752,1.753h3.8c0.968,0,1.752-0.785,1.752-1.753V40.801h14.898c0.968,0,1.752-0.784,1.752-1.752v-3.8   C57.451,34.282,56.667,33.497,55.699,33.497z"/>
</g>
</svg>