<svg xmlns="http://www.w3.org/2000/svg" xmlns:xlink="http://www.w3.org/1999/xlink" version="1.1" id="Your_Icon" x="0px" y="0px" width="100px" height="100px" viewBox="0 0 100 100" enable-background="new 0 0 100 100" xml:space="preserve">
<g>
	<path fill="none" d="M37.149,10.234c-14.936,0-27.086,12.151-27.086,27.085c0,14.936,12.151,27.086,27.086,27.086   c14.935,0,27.085-12.15,27.085-27.086C64.234,22.385,52.084,10.234,37.149,10.234z M53.878,39.22c0,0.968-0.646,1.752-1.443,1.752   H21.863c-0.797,0-1.444-0.784-1.444-1.752v-3.8c0-0.968,0.646-1.753,1.444-1.753h30.571c0.797,0,1.443,0.785,1.443,1.753V39.22z"/>
	<path fill="#000000" d="M99.337,89.241L68.052,57.956c4.063-6.057,6.246-13.179,6.246-20.637c0-9.922-3.864-19.251-10.881-26.268   C56.4,4.035,47.072,0.171,37.149,0.171c-9.923,0-19.252,3.864-26.269,10.88C3.864,18.068,0,27.397,0,37.319   c0,9.924,3.864,19.252,10.881,26.27c7.017,7.016,16.345,10.879,26.269,10.879c7.541,0,14.737-2.232,20.838-6.385l31.255,31.254   c1.055,1.055,2.995,0.826,4.332-0.512l5.252-5.25C100.164,92.237,100.393,90.298,99.337,89.241z M37.149,64.405   c-14.936,0-27.086-12.15-27.086-27.086c0-14.935,12.151-27.085,27.086-27.085c14.935,0,27.085,12.151,27.085,27.085   C64.234,52.255,52.084,64.405,37.149,64.405z"/>
	<path fill="#000000" d="M52.435,33.667H21.863c-0.797,0-1.444,0.785-1.444,1.753v3.8c0,0.968,0.646,1.752,1.444,1.752h30.571   c0.797,0,1.443-0.784,1.443-1.752v-3.8C53.878,34.452,53.231,33.667,52.435,33.667z"/>
</g>
</svg>