<svg xmlns="http://www.w3.org/2000/svg" xmlns:xlink="http://www.w3.org/1999/xlink" version="1.1" id="Layer_1" x="0px" y="0px" width="100px" height="100px" viewBox="0 0 100 100" enable-background="new 0 0 100 100" xml:space="preserve">
<g>
	<path d="M31.112,39.094v21.812L49.999,71.81l18.89-10.903V39.094l-18.89-10.905L31.112,39.094z M60.925,56.308l-10.926,6.307   l-10.924-6.307V43.692l10.924-6.308l10.926,6.308V56.308z"/>
	<path d="M49.999,3.29L9.547,26.646v46.709L49.999,96.71l40.454-23.355V26.646L49.999,3.29z M82.19,68.584L49.999,87.169   L17.811,68.584v-37.17l32.188-18.585L82.19,31.414V68.584z"/>
	<path d="M20.368,32.89v34.218l29.631,17.108l29.634-17.108V32.89L49.999,15.782L20.368,32.89z M71.446,62.383l-21.447,12.38   l-21.444-12.38V37.618l21.444-12.382l21.447,12.382V62.383z"/>
</g>
</svg>