<svg xmlns="http://www.w3.org/2000/svg" xmlns:xlink="http://www.w3.org/1999/xlink" version="1.1" id="&#1057;&#1083;&#1086;&#1081;_1" x="0px" y="0px" width="100px" height="100px" viewBox="0 0 100 100" enable-background="new 0 0 100 100" xml:space="preserve">
<path fill-rule="evenodd" clip-rule="evenodd" d="M58.865,18.95l-1.304-9.376c-0.4-2.859-0.074-3.84-3.292-4.281  c-2.981-0.417-5.7-0.389-8.796,0.082c-3.086,0.45-2.699,1.49-3.069,4.204c-0.426,3.192-0.842,6.193-1.27,9.384v0.004  c-2.408,0.681-4.703,1.638-6.842,2.837l0.019-0.031c-2.516-1.902-5.026-3.8-7.55-5.695c-2.311-1.761-2.766-2.672-5.353-0.717  c-2.399,1.82-4.302,3.77-6.161,6.272c-1.858,2.515-0.852,2.975,0.799,5.161c1.955,2.553,3.79,4.964,5.735,7.524v0.002  c-1.191,2.127-2.138,4.419-2.832,6.816v-0.004c-3.121,0.432-6.248,0.866-9.376,1.304c-2.859,0.401-3.84,0.074-4.281,3.292  c-0.417,2.981-0.389,5.7,0.082,8.796c0.45,3.086,1.49,2.699,4.204,3.069l9.351,1.267c0.679,2.412,1.647,4.707,2.841,6.846  l-5.724,7.51c-1.651,2.186-2.656,2.646-0.799,5.155c1.859,2.525,3.758,4.467,6.161,6.28c2.586,1.961,3.042,1.037,5.353-0.709  l7.539-5.691c2.143,1.193,4.43,2.158,6.838,2.843l1.267,9.325c0.37,2.714-0.017,3.754,3.069,4.204  c3.096,0.47,5.815,0.499,8.796,0.082c3.218-0.441,2.891-1.422,3.292-4.281l1.297-9.322c2.415-0.685,4.718-1.646,6.866-2.851  l7.48,5.7c2.186,1.651,2.646,2.656,5.161,0.799c2.503-1.859,4.452-3.762,6.273-6.161c1.955-2.587,1.044-3.042-0.717-5.353  l-5.67-7.516c1.198-2.148,2.164-4.448,2.845-6.86l9.325-1.267c2.714-0.37,3.754,0.017,4.204-3.069  c0.47-3.096,0.499-5.815,0.082-8.796c-0.441-3.218-1.422-2.891-4.281-3.292l-9.345-1.3c-0.682-2.406-1.646-4.694-2.84-6.833  l5.68-7.519c1.761-2.317,2.672-2.777,0.717-5.363c-1.82-2.396-3.77-4.306-6.273-6.165c-2.515-1.851-2.975-0.85-5.161,0.821  l-7.505,5.703C63.557,20.585,61.274,19.64,58.865,18.95L58.865,18.95z M49.999,33.404c-9.163,0-16.594,7.431-16.594,16.594  c0,9.166,7.431,16.597,16.594,16.597c9.166,0,16.598-7.431,16.598-16.597C66.596,40.836,59.164,33.404,49.999,33.404L49.999,33.404z  "/>
</svg>